<svg>
<symbol
	id="icon-d"
>{{!--
	viewBox="0 0 200 200"
--}}<path
		class="icon bulk"
		d="M177.69,0H22.31A22.34,22.34,0,0,0,0,22.31V177.69A22.34,22.34,0,0,0,22.31,200H177.69A22.34,22.34,0,0,0,200,177.69V22.31A22.34,22.34,0,0,0,177.69,0ZM195,177.69A17.37,17.37,0,0,1,177.69,195H22.31A17.37,17.37,0,0,1,5,177.69V22.31A17.37,17.37,0,0,1,22.31,5H177.69A17.37,17.37,0,0,1,195,22.31ZM145.32,67.74h30.89V173H21.77V151.25H52.66V129.51H83.55V110.07h29.74V89.48h32ZM28.21,36.85h14.3V56.3H53.09L35.36,82.61,17.63,56.3H28.21ZM178.5,34.28a4.57,4.57,0,0,1-4.58,4.58H160.48c-6,0-8.72,1.22-14,4.89-5.6,3.92-117.45,86.89-118.58,87.72-1.39.9-5,.85-6.4-.95a4.57,4.57,0,0,1,.95-6.4c4.61-3.42,113.08-83.88,118.79-87.88,6.2-4.34,10.88-6.55,19.21-6.55h13.44A4.57,4.57,0,0,1,178.5,34.28Z"
	/>
</symbol>
</svg>