<svg viewBox="0 0 200 200" xmlns="http://www.w3.org/2000/svg">
<path
		class="icon bulk"
		d="M138.49,36c-33.72-5.26-66.31,8-74.58,21.72H48.83C48.83,53.44,45.78,50,42,50s-6.82,3.44-6.82,7.69a7.77,7.77,0,0,0,4,7,7.24,7.24,0,0,0-4,6.57,6.83,6.83,0,1,0,13.64,0h15c7.07,13.29,33.64,25.4,74.71,21.12,6.69-.7,12.16-12.63,12.16-28.21S145.16,37,138.49,36Zm0,52.18c-5.71,0-10.33-10.73-10.33-24s4.62-24,10.33-24,10.33,10.73,10.33,24S144.2,88.13,138.49,88.13Zm3.72-24c0,4.77-1.66,8.63-3.72,8.63s-3.72-3.86-3.72-8.63,1.66-8.63,3.72-8.63S142.21,59.4,142.21,64.16ZM151.92,144a98.3,98.3,0,0,0-7.58-6.75,98.3,98.3,0,0,0,7.58-6.75c5-4.77,3.72-15.63,3.72-15.63l-20.22,17.91c-9.56-5.94-39.56-23.43-61.18-23.21-26,.26-40.49,26.75-40.49,26.75s15.08,28.6,39.87,28.6c26.58,0,49.49-16.69,59.5-25.25l22.52,20S156.88,148.78,151.92,144Zm-96.27-7.15c-2.17,0-3.93-2.25-3.93-5s1.76-5,3.93-5,3.93,2.25,3.93,5S57.82,136.87,55.65,136.87Zm10.95,19.2a36.83,36.83,0,0,0,6.82-20.26c.31-12.05-6.82-17.75-6.82-17.75s11.36-.13,11.78,18S66.6,156.07,66.6,156.07ZM177.69,200H22.31A22.34,22.34,0,0,1,0,177.69V22.31A22.34,22.34,0,0,1,22.31,0H177.69A22.34,22.34,0,0,1,200,22.31V177.69A22.34,22.34,0,0,1,177.69,200ZM22.31,5A17.37,17.37,0,0,0,5,22.31V177.69A17.37,17.37,0,0,0,22.31,195H177.69A17.37,17.37,0,0,0,195,177.69V22.31A17.37,17.37,0,0,0,177.69,5Z"
	/>
</svg>