<svg viewBox="0 0 402 200" xmlns="http://www.w3.org/2000/svg">
<path
		class="icon bulk"
		d="m 340.5,36 c -33.7,-5.3 -66.3,8 -74.6,21.7 h -15.1 c 0,-4.3 -3.1,-7.7 -6.8,-7.7 -3.7,0 -6.8,3.4 -6.8,7.7 -0.1,2.9 1.5,5.6 4,7 -2.5,1.2 -4,3.8 -4,6.6 -0.2,3.8 2.7,7 6.5,7.2 3.8,0.2 7,-2.7 7.2,-6.5 0,-0.2 0,-0.5 0,-0.7 h 15 c 7.1,13.3 33.6,25.4 74.7,21.1 6.7,-0.7 12.2,-12.6 12.2,-28.2 0,-15.6 -5.6,-27.2 -12.3,-28.2 z m 0,52.2 c -5.7,0 -10.3,-10.7 -10.3,-24 0,-13.3 4.6,-24 10.3,-24 5.7,0 10.3,10.7 10.3,24 0,13.3 -4.6,23.9 -10.3,24 z m 3.7,-24 c 0,4.8 -1.7,8.6 -3.7,8.6 -2,0 -3.7,-3.9 -3.7,-8.6 0,-4.7 1.7,-8.6 3.7,-8.6 2,0 3.7,3.8 3.7,8.6 z m 9.7,79.8 c -2.4,-2.4 -4.9,-4.6 -7.6,-6.8 2.6,-2.1 5.2,-4.4 7.6,-6.8 5,-4.8 3.7,-15.6 3.7,-15.6 l -20.2,17.9 c -9.6,-5.9 -39.6,-23.4 -61.2,-23.2 -26,0.3 -40.5,26.8 -40.5,26.8 0,0 15.1,28.6 39.9,28.6 26.6,0 49.5,-16.7 59.5,-25.2 l 22.5,20 c 0,0 1.3,-10.9 -3.7,-15.7 z m -96.3,-7.1 c -2.2,0 -3.9,-2.2 -3.9,-5 0,-2.8 1.8,-5 3.9,-5 2.2,0 3.9,2.2 3.9,5 0,2.8 -1.7,5 -3.9,5 z m 11,19.2 c 4.2,-5.9 6.6,-13 6.8,-20.3 0.3,-12.1 -6.8,-17.8 -6.8,-17.8 0,0 11.4,-0.1 11.8,18 0.4,18.2 -11.8,20.1 -11.8,20.1 z M 379.7,200 H 224.3 C 212,200 202,190 202,177.7 V 22.3 C 202,10 212,0 224.3,0 H 379.7 C 392,0 402,10 402,22.3 V 177.7 C 402,190 392,200 379.7,200 Z M 224.3,5 C 214.8,5 207,12.8 207,22.3 v 155.4 c 0,9.5 7.8,17.3 17.3,17.3 h 155.4 c 9.5,0 17.3,-7.8 17.3,-17.3 V 22.3 C 397,12.8 389.2,5 379.7,5 Z M 138.5,36 C 104.8,30.7 72.2,44 63.9,57.7 H 48.8 C 48.8,53.4 45.7,50 42,50 c -3.7,0 -6.8,3.4 -6.8,7.7 -0.1,2.9 1.5,5.6 4,7 -2.5,1.2 -4,3.8 -4,6.6 -0.2,3.8 2.7,7 6.5,7.2 3.8,0.2 7,-2.7 7.2,-6.5 0,-0.2 0,-0.5 0,-0.7 h 15 c 7.1,13.3 33.6,25.4 74.7,21.1 6.7,-0.7 12.2,-12.6 12.2,-28.2 0,-15.6 -5.6,-27.2 -12.3,-28.2 z m 0,52.2 c -5.7,0 -10.3,-10.7 -10.3,-24 0,-13.3 4.6,-24 10.3,-24 5.7,0 10.3,10.7 10.3,24 0,13.3 -4.6,23.9 -10.3,24 z m 3.7,-24 c 0,4.8 -1.7,8.6 -3.7,8.6 -2,0 -3.7,-3.9 -3.7,-8.6 0,-4.7 1.7,-8.6 3.7,-8.6 2,0 3.7,3.8 3.7,8.6 z m 9.7,79.8 c -2.4,-2.4 -4.9,-4.6 -7.6,-6.8 2.6,-2.1 5.2,-4.4 7.6,-6.8 5,-4.8 3.7,-15.6 3.7,-15.6 l -20.2,17.9 c -9.6,-5.9 -39.6,-23.4 -61.2,-23.2 -26,0.3 -40.5,26.8 -40.5,26.8 0,0 15.1,28.6 39.9,28.6 26.6,0 49.5,-16.7 59.5,-25.2 l 22.5,20 c 0,0 1.3,-10.9 -3.7,-15.7 z m -96.2,-7.1 c -2.2,0 -3.9,-2.2 -3.9,-5 0,-2.8 1.8,-5 3.9,-5 2.1,0 3.9,2.2 3.9,5 0,2.8 -1.8,5 -3.9,5 z m 10.9,19.2 c 4.2,-5.9 6.6,-13 6.8,-20.3 0.3,-12.1 -6.8,-17.8 -6.8,-17.8 0,0 11.4,-0.1 11.8,18 0.4,18.1 -11.8,20.1 -11.8,20.1 z M 177.7,200 H 22.3 C 10,200 0,190 0,177.7 V 22.3 C 0,10 10,0 22.3,0 H 177.7 C 190,0 200,10 200,22.3 V 177.7 C 200,190 190,200 177.7,200 Z M 22.3,5 C 12.8,5 5,12.8 5,22.3 v 155.4 c 0,9.5 7.8,17.3 17.3,17.3 h 155.4 c 9.5,0 17.3,-7.8 17.3,-17.3 V 22.3 C 195,12.8 187.2,5 177.7,5 Z"
	/>
</svg>