<svg viewBox="0 0 402 200" xmlns="http://www.w3.org/2000/svg"><path
		class="icon bulk"
		d="M 22.300781 0 C 10.000781 2.3684758e-15 0 10.000781 0 22.300781 L 0 177.69922 C 2.3684758e-15 189.99922 10.000781 200 22.300781 200 L 177.69922 200 C 189.99922 200 200 189.99922 200 177.69922 L 200 22.300781 C 200 10.000781 189.99922 0 177.69922 0 L 22.300781 0 z M 223.30078 0 C 211.00078 0 201 10.000781 201 22.300781 L 201 177.69922 C 201 189.99922 211.00078 200 223.30078 200 L 378.69922 200 C 390.99922 200 401 189.99922 401 177.69922 L 401 22.300781 C 401 10.000781 390.99922 2.3684758e-15 378.69922 0 L 223.30078 0 z M 22.300781 5 L 177.69922 5 C 187.19922 5 195 12.800781 195 22.300781 L 195 177.69922 C 195 187.19922 187.19922 195 177.69922 195 L 22.300781 195 C 12.800781 195 5 187.19922 5 177.69922 L 5 22.300781 C 5 12.800781 12.800781 5 22.300781 5 z M 223.30078 5 L 378.69922 5 C 388.19922 5 396 12.800781 396 22.300781 L 396 177.69922 C 396 187.19922 388.19922 195 378.69922 195 L 223.30078 195 C 213.80078 195 206 187.19922 206 177.69922 L 206 22.300781 C 206 12.800781 213.80078 5 223.30078 5 z M 361.40039 29.800781 C 353.10039 29.800781 348.39922 32.000781 342.19922 36.300781 C 336.49922 40.300781 228.00039 120.79922 223.40039 124.19922 C 221.40039 125.69922 221 128.59961 222.5 130.59961 C 224 132.59961 226.90039 133 228.90039 131.5 C 230.10039 130.7 341.9 47.700781 347.5 43.800781 C 352.8 40.100781 355.5 38.900391 361.5 38.900391 L 374.90039 38.900391 C 377.50039 38.900391 379.5 36.800781 379.5 34.300781 C 379.5 31.700781 377.40078 29.700781 374.80078 29.800781 L 361.40039 29.800781 z M 122.87305 34.808594 C 95.206616 34.866107 70.903516 46.139844 63.900391 57.699219 L 48.800781 57.699219 C 48.800781 53.399219 45.7 50 42 50 C 38.3 50 35.199219 53.399219 35.199219 57.699219 C 35.099219 60.599219 36.699219 63.299219 39.199219 64.699219 C 36.699219 65.899219 35.199219 68.500781 35.199219 71.300781 C 34.999219 75.100781 37.899219 78.3 41.699219 78.5 C 45.499219 78.7 48.700391 75.8 48.900391 72 L 48.900391 71.300781 L 63.900391 71.300781 C 71.000391 84.600781 97.499609 96.700391 138.59961 92.400391 C 145.29961 91.700391 150.80078 79.799219 150.80078 64.199219 C 150.80078 48.599219 145.2 37 138.5 36 C 133.23438 35.171875 127.99646 34.797943 122.87305 34.808594 z M 138.5 40.199219 C 144.2 40.199219 148.80078 50.899219 148.80078 64.199219 C 148.80078 77.499219 144.2 88.099219 138.5 88.199219 C 132.8 88.199219 128.19922 77.499219 128.19922 64.199219 C 128.19922 50.899219 132.8 40.199219 138.5 40.199219 z M 138.5 55.599609 C 136.5 55.599609 134.80078 59.499219 134.80078 64.199219 C 134.80078 68.899219 136.5 72.800781 138.5 72.800781 C 140.5 72.800781 142.19922 68.999219 142.19922 64.199219 C 142.19922 59.399219 140.5 55.599609 138.5 55.599609 z M 346.30078 67.699219 L 346.30078 89.5 L 314.30078 89.5 L 314.30078 110.09961 L 284.59961 110.09961 L 284.59961 129.5 L 253.69922 129.5 L 253.69922 151.19922 L 222.80078 151.19922 L 222.80078 173 L 377.19922 173 L 377.19922 67.699219 L 346.30078 67.699219 z M 74.199219 109.5 C 48.199219 109.8 33.699219 136.30078 33.699219 136.30078 C 33.699219 136.30078 48.799609 164.90039 73.599609 164.90039 C 100.19961 164.90039 123.09961 148.19922 133.09961 139.69922 L 155.59961 159.69922 C 155.59961 159.69922 156.90039 148.8 151.90039 144 C 149.50039 141.6 147.00078 139.39922 144.30078 137.19922 C 146.90078 135.09922 149.50039 132.80039 151.90039 130.40039 C 156.90039 125.60039 155.59961 114.80078 155.59961 114.80078 L 135.40039 132.69922 C 125.80039 126.79922 95.799219 109.3 74.199219 109.5 z M 66.599609 118 C 66.599609 118 78.000391 117.9 78.400391 136 C 78.800391 154.1 66.599609 156.09961 66.599609 156.09961 C 70.799609 150.19961 73.200391 143.10078 73.400391 135.80078 C 73.700391 123.70078 66.599609 118 66.599609 118 z M 55.699219 126.90039 C 57.799219 126.90039 59.599609 129.10039 59.599609 131.90039 C 59.599609 134.70039 57.799219 136.90039 55.699219 136.90039 C 53.499219 136.90039 51.800781 134.70039 51.800781 131.90039 C 51.800781 129.10039 53.599219 126.90039 55.699219 126.90039 z"
	/>
</svg>