<svg viewBox="0 0 200 402" xmlns="http://www.w3.org/2000/svg"><path
		class="icon bulk"
		d="m 138.5,238 c -33.7,-5.3 -66.3,8 -74.6,21.7 H 48.8 c 0,-4.3 -3.1,-7.7 -6.8,-7.7 -3.7,0 -6.8,3.4 -6.8,7.7 -0.1,2.9 1.5,5.6 4,7 -2.5,1.2 -4,3.8 -4,6.6 -0.2,3.8 2.7,7 6.5,7.2 3.8,0.2 7,-2.7 7.2,-6.5 0,-0.2 0,-0.5 0,-0.7 h 15 c 7.1,13.3 33.6,25.4 74.7,21.1 6.7,-0.7 12.2,-12.6 12.2,-28.2 -0.1,-15.6 -5.6,-27.2 -12.3,-28.2 z m 0,52.2 c -5.7,0 -10.3,-10.7 -10.3,-24 0,-13.3 4.6,-24 10.3,-24 5.7,0 10.3,10.7 10.3,24 0,13.3 -4.6,23.9 -10.3,24 z m 3.7,-24 c 0,4.8 -1.7,8.6 -3.7,8.6 -2,0 -3.7,-3.9 -3.7,-8.6 0,-4.8 1.7,-8.6 3.7,-8.6 2,0 3.7,3.8 3.7,8.6 z m 9.7,79.8 c -2.4,-2.4 -4.9,-4.6 -7.6,-6.8 2.6,-2.1 5.2,-4.4 7.6,-6.8 5,-4.8 3.7,-15.6 3.7,-15.6 l -20.2,17.9 c -9.6,-5.9 -39.6,-23.4 -61.2,-23.2 -26,0.3 -40.5,26.8 -40.5,26.8 0,0 15.1,28.6 39.9,28.6 26.6,0 49.5,-16.7 59.5,-25.2 l 22.5,20 c 0,0 1.3,-10.9 -3.7,-15.7 z m -96.2,-7.1 c -2.2,0 -3.9,-2.2 -3.9,-5 0,-2.8 1.8,-5 3.9,-5 2.1,0 3.9,2.2 3.9,5 0,2.8 -1.8,5 -3.9,5 z M 66.6,358 c 4.2,-5.9 6.6,-13 6.8,-20.3 0.3,-12.1 -6.8,-17.8 -6.8,-17.8 0,0 11.4,-0.1 11.8,18 0.4,18.1 -11.8,20.2 -11.8,20.1 z m 111.1,44 H 22.3 C 10,402 0,392 0,379.7 V 224.3 C 0,212 10,202 22.3,202 h 155.4 c 12.3,0 22.3,10 22.3,22.3 V 379.7 C 200,392 190,402 177.7,402 Z M 22.3,207 C 12.8,207 5,214.8 5,224.3 v 155.4 c 0,9.5 7.8,17.3 17.3,17.3 h 155.4 c 9.5,0 17.3,-7.8 17.3,-17.3 V 224.3 C 195,214.8 187.2,207 177.7,207 Z M 145.2,53.5 c -6.3,0 -11.3,-5.1 -11.3,-11.3 0,-6.3 5.1,-11.3 11.3,-11.3 6.2,0 11.3,5.1 11.3,11.3 0,6.2 -5,11.3 -11.3,11.3 z m -26.7,16.9 v 34.8 c 0,6.8 9.1,6.8 9.1,0 l 0.8,-31.8 h 2.3 v 87.2 c 0,9 12.4,8.8 12.4,0 l 0.8,-50.6 h 2.5 l 0.8,50.6 c 0,8.8 12.4,9 12.4,0 V 73.4 h 2.4 l 0.8,31.8 c 0,6.8 9.1,6.8 9.1,0 V 70.4 c 0,-11.9 -3.6,-14.7 -14.5,-14.7 H 133 c -10.9,0 -14.5,2.8 -14.5,14.7 z m -48,-28.2 c 0,-6.3 -5,-11.4 -11.3,-11.4 -6.3,0 -11.4,5 -11.4,11.3 0,6.3 5,11.4 11.3,11.4 0,0 0.1,0 0.1,0 6.3,0 11.3,-5.1 11.3,-11.3 0.1,-0.1 0.1,-0.1 0,0 z m -34,58.5 10.3,-29.3 H 48 c 0,0 -13.5,52.4 -14.1,54.4 -0.3,1 0.1,1.7 1.2,1.7 H 46.8 V 162 c 0,7 10.5,7 10.5,0 v -34.7 h 4 V 162 c 0,7 10.5,7 10.5,0 v -34.5 h 11.7 c 1,0 1.4,-0.7 1.2,-1.7 -0.6,-2 -14.1,-54.4 -14.1,-54.4 h 1.2 l 10.3,29.3 c 2.1,6.4 10,4 8,-2.9 l -9.7,-32 C 78.5,60.1 72.9,55.7 64.6,55.7 H 54 c -8.2,0 -13.9,4.5 -15.8,10.1 l -9.7,32 c -2.1,6.9 5.9,9.4 8,2.9 z m 61.7,61 c 0,3 2.4,5.5 5.5,5.5 0,0 0,0 0,0 v 0 c 3,0 5.5,-2.5 5.5,-5.5 0,0 0,0 0,0 V 36.3 c 0,-3 -2.4,-5.5 -5.5,-5.5 v 0 0 c -3,0 -5.5,2.4 -5.5,5.5 0,0 0,0 0,0 z m 101.8,16 V 22.3 C 200,10 190,0 177.7,0 H 22.3 C 10,0 0,10 0,22.3 V 177.7 C 0,190 10,200 22.3,200 H 177.7 C 190,200 200,190 200,177.7 Z M 177.7,5 c 9.5,0 17.3,7.8 17.3,17.3 v 155.4 c 0,9.5 -7.8,17.3 -17.3,17.3 H 22.3 C 12.8,195 5,187.2 5,177.7 V 22.3 C 5,12.8 12.8,5 22.3,5 Z"
	/>
</svg>