<svg viewBox="0 0 200 200" xmlns="http://www.w3.org/2000/svg">
<path
		class="icon bulk"
		d="M145.19,53.45a11.33,11.33,0,1,1,11.35-11.33A11.34,11.34,0,0,1,145.19,53.45Zm-26.67,17v34.8c0,6.76,9.11,6.76,9.11,0l.79-31.83h2.34v87.15c0,9,12.41,8.78,12.41,0l.78-50.59h2.46l.79,50.59c0,8.78,12.41,9,12.41,0V73.38H162l.79,31.83c0,6.76,9.12,6.76,9.12,0V70.4c0-11.91-3.56-14.72-14.49-14.72H133C122.08,55.68,118.53,58.49,118.53,70.4Zm-48-28.29A11.34,11.34,0,1,0,59.21,53.45,11.33,11.33,0,0,0,70.55,42.11ZM36.49,100.73,46.76,71.45h1.18s-13.49,52.42-14.06,54.39c-.29,1,.12,1.69,1.16,1.69H46.71V162c0,7,10.49,7,10.49,0v-34.7h4V162c0,7,10.49,7,10.49,0V127.53H83.39c1,0,1.45-.71,1.16-1.69-.56-2-14.06-54.39-14.06-54.39h1.17l10.28,29.28c2.08,6.43,10,4,8-2.9l-9.73-32c-1.88-5.65-7.53-10.12-15.8-10.12H54c-8.25,0-13.91,4.46-15.79,10.12l-9.74,32C26.44,104.72,34.39,107.16,36.49,100.73Zm61.67,61a5.48,5.48,0,0,0,5.48,5.49h0a5.48,5.48,0,0,0,5.47-5.49V36.26a5.47,5.47,0,0,0-5.47-5.47h0a5.47,5.47,0,0,0-5.48,5.47Zm101.85,16V22.31A22.34,22.34,0,0,0,177.69,0H22.31A22.34,22.34,0,0,0,0,22.31V177.69A22.34,22.34,0,0,0,22.31,200H177.69A22.34,22.34,0,0,0,200,177.69ZM177.69,5A17.37,17.37,0,0,1,195,22.31V177.69A17.37,17.37,0,0,1,177.69,195H22.31A17.37,17.37,0,0,1,5,177.69V22.31A17.37,17.37,0,0,1,22.31,5Z"
	/>
</svg>