<svg viewBox="0 0 402 402" xmlns="http://www.w3.org/2000/svg"><path
		class="icon bulk"
		d="M 22.300781 0 C 10.000781 0 2.3684758e-15 10.000781 0 22.300781 L 0 177.69922 C 0 189.99922 10.000781 200 22.300781 200 L 177.69922 200 C 189.99922 200 200 189.99922 200 177.69922 L 200 22.300781 C 200 10.000781 189.99922 2.3684758e-15 177.69922 0 L 22.300781 0 z M 224.30078 0 C 212.00078 0 202 10.000781 202 22.300781 L 202 177.69922 C 202 189.99922 212.00078 200 224.30078 200 L 379.69922 200 C 391.99922 200 402 189.99922 402 177.69922 L 402 22.300781 C 402 10.000781 391.99922 2.3684758e-15 379.69922 0 L 224.30078 0 z M 22.300781 5 L 177.69922 5 C 187.19922 5 195 12.800781 195 22.300781 L 195 177.69922 C 195 187.19922 187.19922 195 177.69922 195 L 22.300781 195 C 12.800781 195 5 187.19922 5 177.69922 L 5 22.300781 C 5 12.800781 12.800781 5 22.300781 5 z M 224.30078 5 L 379.69922 5 C 389.19922 5 397 12.800781 397 22.300781 L 397 177.69922 C 397 187.19922 389.19922 195 379.69922 195 L 224.30078 195 C 214.80078 195 207 187.19922 207 177.69922 L 207 22.300781 C 207 12.800781 214.80078 5 224.30078 5 z M 59.199219 30.800781 C 52.899219 30.800781 47.800781 35.799609 47.800781 42.099609 C 47.800781 48.399609 52.799609 53.5 59.099609 53.5 L 59.199219 53.5 C 65.499219 53.5 70.5 48.399219 70.5 42.199219 C 70.5 35.899219 65.499219 30.800781 59.199219 30.800781 z M 103.69922 30.800781 C 100.69922 30.800781 98.199219 33.200781 98.199219 36.300781 L 98.199219 161.69922 C 98.199219 164.69922 100.59922 167.19922 103.69922 167.19922 C 106.69922 167.19922 109.19922 164.69922 109.19922 161.69922 L 109.19922 36.300781 C 109.19922 33.300781 106.79922 30.800781 103.69922 30.800781 z M 261.19922 30.800781 C 254.89922 30.800781 249.80078 35.799609 249.80078 42.099609 C 249.80078 48.399609 254.79961 53.5 261.09961 53.5 L 261.19922 53.5 C 267.49922 53.5 272.5 48.399219 272.5 42.199219 C 272.5 35.899219 267.49922 30.800781 261.19922 30.800781 z M 305.59961 30.800781 C 302.59961 30.800781 300.09961 33.200781 300.09961 36.300781 L 300.09961 161.69922 C 300.09961 164.69922 302.49961 167.19922 305.59961 167.19922 C 308.59961 167.19922 311.09961 164.69922 311.09961 161.69922 L 311.09961 36.300781 C 311.09961 33.300781 308.69961 30.800781 305.59961 30.800781 z M 145.19922 30.900391 C 138.99922 30.900391 133.90039 35.899219 133.90039 42.199219 C 133.90039 48.399219 138.89922 53.5 145.19922 53.5 C 151.49922 53.5 156.5 48.399219 156.5 42.199219 C 156.5 35.999219 151.39922 30.900391 145.19922 30.900391 z M 347.30078 30.900391 C 341.00078 30.900391 335.90039 35.899219 335.90039 42.199219 C 335.90039 48.399219 340.89922 53.5 347.19922 53.5 C 353.39922 53.5 358.49961 48.399219 358.59961 42.199219 C 358.59961 35.999219 353.50078 30.900391 347.30078 30.900391 z M 54 55.699219 C 45.8 55.699219 40.099219 60.200781 38.199219 65.800781 L 28.5 97.800781 C 26.4 104.70078 34.4 107.19922 36.5 100.69922 L 46.800781 71.400391 L 48 71.400391 C 48 71.400391 34.500391 123.80078 33.900391 125.80078 C 33.600391 126.80078 33.999609 127.5 35.099609 127.5 L 46.800781 127.5 L 46.800781 162 C 46.800781 169 57.300781 169 57.300781 162 L 57.300781 127.30078 L 61.300781 127.30078 L 61.300781 162 C 61.300781 169 71.800781 169 71.800781 162 L 71.800781 127.5 L 83.5 127.5 C 84.5 127.5 84.899219 126.80078 84.699219 125.80078 C 84.099219 123.80078 70.599609 71.400391 70.599609 71.400391 L 71.800781 71.400391 L 82.099609 100.69922 C 84.199609 107.09922 92.099609 104.70078 90.099609 97.800781 L 80.400391 65.800781 C 78.500391 60.100781 72.899609 55.699219 64.599609 55.699219 L 54 55.699219 z M 133 55.699219 C 122.1 55.699219 118.5 58.500391 118.5 70.400391 L 118.5 105.19922 C 118.5 111.99922 127.59961 111.99922 127.59961 105.19922 L 128.40039 73.400391 L 130.69922 73.400391 L 130.69922 160.59961 C 130.69922 169.59961 143.09961 169.39961 143.09961 160.59961 L 143.90039 110 L 146.40039 110 L 147.19922 160.59961 C 147.19922 169.39961 159.59961 169.59961 159.59961 160.59961 L 159.59961 73.400391 L 162 73.400391 L 162.80078 105.19922 C 162.80078 111.99922 171.90039 111.99922 171.90039 105.19922 L 171.90039 70.400391 C 171.90039 58.500391 168.30039 55.699219 157.40039 55.699219 L 133 55.699219 z M 256 55.699219 C 247.8 55.699219 242.09922 60.200781 240.19922 65.800781 L 230.5 97.800781 C 228.4 104.70078 236.4 107.19922 238.5 100.69922 L 248.80078 71.400391 L 250 71.400391 C 250 71.400391 236.50039 123.80078 235.90039 125.80078 C 235.60039 126.80078 235.99961 127.5 237.09961 127.5 L 248.80078 127.5 L 248.80078 162 C 248.80078 169 259.30078 169 259.30078 162 L 259.30078 127.30078 L 263.30078 127.30078 L 263.30078 162 C 263.30078 169 273.80078 169 273.80078 162 L 273.80078 127.5 L 285.5 127.5 C 286.5 127.5 286.89922 126.80078 286.69922 125.80078 C 286.09922 123.80078 272.59961 71.400391 272.59961 71.400391 L 273.80078 71.400391 L 284.09961 100.69922 C 286.19961 107.09922 294.09961 104.70078 292.09961 97.800781 L 282.40039 65.800781 C 280.50039 60.100781 274.89961 55.699219 266.59961 55.699219 L 256 55.699219 z M 335 55.699219 C 324.1 55.699219 320.5 58.500391 320.5 70.400391 L 320.5 105.19922 C 320.5 111.99922 329.59961 111.99922 329.59961 105.19922 L 330.40039 73.400391 L 332.69922 73.400391 L 332.69922 160.59961 C 332.69922 169.59961 345.09961 169.39961 345.09961 160.59961 L 345.90039 110 L 348.40039 110 L 349.19922 160.59961 C 349.19922 169.39961 361.59961 169.59961 361.59961 160.59961 L 361.59961 73.400391 L 364 73.400391 L 364.80078 105.19922 C 364.80078 111.99922 373.90039 111.99922 373.90039 105.19922 L 373.90039 70.400391 C 373.90039 58.500391 370.30039 55.699219 359.40039 55.699219 L 335 55.699219 z M 124.30078 202 C 112.00078 202 102 212.00078 102 224.30078 L 102 379.69922 C 102 391.99922 112.00078 402 124.30078 402 L 279.69922 402 C 291.99922 402 302 391.99922 302 379.69922 L 302 224.30078 C 302 212.00078 291.99922 202 279.69922 202 L 124.30078 202 z M 124.30078 207 L 279.69922 207 C 289.19922 207 297 214.80078 297 224.30078 L 297 379.69922 C 297 389.19922 289.19922 397 279.69922 397 L 124.30078 397 C 114.80078 397 107 389.19922 107 379.69922 L 107 224.30078 C 107 214.80078 114.80078 207 124.30078 207 z M 224.87305 236.80859 C 197.20662 236.86611 172.90352 248.13984 165.90039 259.69922 L 150.80078 259.69922 C 150.80078 255.39922 147.7 252 144 252 C 140.3 252 137.19922 255.39922 137.19922 259.69922 C 137.09922 262.59922 138.69922 265.29922 141.19922 266.69922 C 138.69922 267.89922 137.19922 270.50078 137.19922 273.30078 C 136.99922 277.10078 139.89922 280.3 143.69922 280.5 C 147.49922 280.7 150.70039 277.8 150.90039 274 L 150.90039 273.30078 L 165.90039 273.30078 C 173.00039 286.60078 199.49961 298.70039 240.59961 294.40039 C 247.29961 293.70039 252.80078 281.79922 252.80078 266.19922 C 252.70078 250.59922 247.1 239 240.5 238 C 235.23438 237.17188 229.99646 236.79794 224.87305 236.80859 z M 240.5 242.19922 C 246.2 242.19922 250.80078 252.89922 250.80078 266.19922 C 250.80078 279.49922 246.2 290.09922 240.5 290.19922 C 234.8 290.19922 230.19922 279.49922 230.19922 266.19922 C 230.19922 252.89922 234.8 242.19922 240.5 242.19922 z M 240.5 257.59961 C 238.5 257.59961 236.80078 261.39922 236.80078 266.19922 C 236.80078 270.89922 238.5 274.80078 240.5 274.80078 C 242.5 274.80078 244.19922 270.99922 244.19922 266.19922 C 244.19922 261.39922 242.5 257.59961 240.5 257.59961 z M 176.19922 311.5 C 150.19922 311.8 135.69922 338.30078 135.69922 338.30078 C 135.69922 338.30078 150.79961 366.90039 175.59961 366.90039 C 202.19961 366.90039 225.09961 350.19922 235.09961 341.69922 L 257.59961 361.69922 C 257.59961 361.69922 258.90039 350.8 253.90039 346 C 251.50039 343.6 249.00078 341.39922 246.30078 339.19922 C 248.90078 337.09922 251.50039 334.80039 253.90039 332.40039 C 258.90039 327.60039 257.59961 316.80078 257.59961 316.80078 L 237.40039 334.69922 C 227.80039 328.79922 197.79922 311.3 176.19922 311.5 z M 168.59961 319.90039 C 168.59961 319.90039 180.00039 319.80039 180.40039 337.90039 C 180.80039 356.20039 168.59961 358.1 168.59961 358 C 172.79961 352.1 175.20039 344.99922 175.40039 337.69922 C 175.70039 325.59922 168.59961 319.90039 168.59961 319.90039 z M 157.59961 328.90039 C 159.79961 328.90039 161.5 331.10039 161.5 333.90039 C 161.5 336.70039 159.79961 338.90039 157.59961 338.90039 C 155.39961 338.90039 153.69922 336.70039 153.69922 333.90039 C 153.69922 331.10039 155.49961 328.90039 157.59961 328.90039 z "
	/>
</svg>