<svg viewBox="0 0 402 402" xmlns="http://www.w3.org/2000/svg"><path
		class="icon bulk"
		d="m 347.2,53.5 c -6.3,0 -11.3,-5.1 -11.3,-11.3 0,-6.3 5.1,-11.3 11.4,-11.3 6.2,0 11.3,5.1 11.3,11.3 -0.1,6.2 -5.1,11.3 -11.4,11.3 z m -26.7,16.9 v 34.8 c 0,6.8 9.1,6.8 9.1,0 l 0.8,-31.8 h 2.3 v 87.2 c 0,9 12.4,8.8 12.4,0 L 346,110 h 2.5 l 0.8,50.6 c 0,8.8 12.4,9 12.4,0 V 73.4 h 2.4 l 0.8,31.8 c 0,6.8 9.1,6.8 9.1,0 V 70.4 C 374,58.5 370.4,55.7 359.5,55.7 H 335 c -10.9,0 -14.5,2.8 -14.5,14.7 z m -48,-28.2 c 0,-6.3 -5,-11.4 -11.3,-11.4 -6.3,0 -11.4,5 -11.4,11.3 0,6.3 5,11.4 11.3,11.4 h 0.1 c 6.3,0 11.3,-5.1 11.3,-11.3 0.1,-0.1 0.1,-0.1 0,0 z m -34,58.5 10.3,-29.3 h 1.2 c 0,0 -13.5,52.4 -14.1,54.4 -0.3,1 0.1,1.7 1.2,1.7 h 11.7 V 162 c 0,7 10.5,7 10.5,0 v -34.7 h 4 V 162 c 0,7 10.5,7 10.5,0 v -34.5 h 11.7 c 1,0 1.4,-0.7 1.2,-1.7 -0.6,-2 -14.1,-54.4 -14.1,-54.4 h 1.2 l 10.3,29.3 c 2.1,6.4 10,4 8,-2.9 l -9.7,-32 C 280.5,60.1 274.9,55.7 266.6,55.7 H 256 c -8.2,0 -13.9,4.5 -15.8,10.1 l -9.7,32 c -2.1,6.9 5.9,9.4 8,2.9 z m 61.7,61 c 0,3 2.4,5.5 5.5,5.5 v 0 0 c 3,0 5.5,-2.5 5.5,-5.5 v 0 -125.4 c 0,-3 -2.4,-5.5 -5.5,-5.5 v 0 0 c -3,0 -5.5,2.4 -5.5,5.5 v 0 z m 101.8,16 V 22.3 C 402,10 392,0 379.7,0 H 224.3 C 212,0 202,10 202,22.3 v 155.4 c 0,12.3 10,22.3 22.3,22.3 H 379.7 C 392,200 402,190 402,177.7 Z M 379.7,5 c 9.5,0 17.3,7.8 17.3,17.3 v 155.4 c 0,9.5 -7.8,17.3 -17.3,17.3 H 224.3 C 214.8,195 207,187.2 207,177.7 V 22.3 C 207,12.8 214.8,5 224.3,5 Z m -32.5,250.4 c -6.3,0 -11.3,-5.1 -11.3,-11.3 0,-6.3 5.1,-11.3 11.4,-11.3 6.2,0 11.3,5.1 11.3,11.3 -0.1,6.3 -5.1,11.4 -11.4,11.3 z m -26.7,17.1 v 34.8 c 0,6.8 9.1,6.8 9.1,0 l 0.8,-31.8 h 2.3 v 87.2 c 0,9 12.4,8.8 12.4,0 L 346,312 h 2.5 l 0.8,50.6 c 0,8.8 12.4,9 12.4,0 v -87.2 h 2.4 l 0.8,31.8 c 0,6.8 9.1,6.8 9.1,0 v -34.8 c 0,-11.9 -3.6,-14.7 -14.5,-14.7 H 335 c -10.9,0 -14.5,2.8 -14.5,14.8 z m -48,-28.3 c 0,-6.3 -5,-11.4 -11.3,-11.4 -6.3,0 -11.4,5 -11.4,11.3 0,6.3 5,11.4 11.3,11.4 h 0.1 c 6.3,0 11.3,-5.1 11.3,-11.3 0.1,-0.1 0.1,-0.1 0,0 z m -34,58.5 10.3,-29.3 h 1.2 c 0,0 -13.5,52.4 -14.1,54.4 -0.3,1 0.1,1.7 1.2,1.7 h 11.7 V 364 c 0,7 10.5,7 10.5,0 v -34.7 h 4 V 364 c 0,7 10.5,7 10.5,0 v -34.5 h 11.7 c 1,0 1.4,-0.7 1.2,-1.7 -0.6,-2 -14.1,-54.4 -14.1,-54.4 h 1.2 l 10.3,29.3 c 2.1,6.4 10,4 8,-2.9 l -9.7,-32 c -1.9,-5.6 -7.5,-10.1 -15.8,-10.1 H 256 c -8.2,0 -13.9,4.5 -15.8,10.1 l -9.7,32 c -2.1,6.9 5.9,9.4 8,2.9 z m 61.7,61 c 0,3 2.4,5.5 5.5,5.5 v 0 0 c 3,0 5.5,-2.5 5.5,-5.5 v 0 -125.4 c 0,-3 -2.4,-5.5 -5.5,-5.5 v 0 0 c -3,0 -5.5,2.4 -5.5,5.5 v 0 z m 101.8,16 V 224.3 C 402,212 392,202 379.7,202 H 224.3 C 212,202 202,212 202,224.3 v 155.4 c 0,12.3 10,22.3 22.3,22.3 H 379.7 C 392,402 402,392 402,379.7 Z M 379.7,207 c 9.5,0 17.3,7.8 17.3,17.3 v 155.4 c 0,9.5 -7.8,17.3 -17.3,17.3 H 224.3 C 214.8,397 207,389.2 207,379.7 V 224.3 c 0,-9.5 7.8,-17.3 17.3,-17.3 z m -234.5,48.4 c -6.3,0 -11.3,-5.1 -11.3,-11.3 0,-6.3 5.1,-11.3 11.3,-11.3 6.2,0 11.3,5.1 11.3,11.3 0,6.3 -5,11.4 -11.3,11.3 z m -26.7,17.1 v 34.8 c 0,6.8 9.1,6.8 9.1,0 l 0.8,-31.8 h 2.3 v 87.2 c 0,9 12.4,8.8 12.4,0 l 0.8,-50.6 h 2.5 l 0.8,50.6 c 0,8.8 12.4,9 12.4,0 v -87.2 h 2.4 l 0.8,31.8 c 0,6.8 9.1,6.8 9.1,0 v -34.8 c 0,-11.9 -3.6,-14.7 -14.5,-14.7 H 133 c -10.9,-0.1 -14.5,2.7 -14.5,14.7 z m -48,-28.3 c 0,-6.3 -5,-11.4 -11.3,-11.4 -6.3,0 -11.4,5 -11.4,11.3 0,6.3 5,11.4 11.3,11.4 h 0.1 c 6.3,0 11.3,-5.1 11.3,-11.3 0.1,-0.1 0.1,-0.1 0,0 z m -34,58.5 10.3,-29.3 H 48 c 0,0 -13.5,52.4 -14.1,54.4 -0.3,1 0.1,1.7 1.2,1.7 H 46.8 V 364 c 0,7 10.5,7 10.5,0 v -34.7 h 4 V 364 c 0,7 10.5,7 10.5,0 v -34.5 h 11.7 c 1,0 1.4,-0.7 1.2,-1.7 -0.6,-2 -14.1,-54.4 -14.1,-54.4 h 1.2 l 10.3,29.3 c 2.1,6.4 10,4 8,-2.9 l -9.7,-32 C 78.5,262.2 72.9,257.7 64.6,257.7 H 54 c -8.2,0 -13.9,4.5 -15.8,10.1 l -9.7,32 c -2.1,6.9 5.9,9.4 8,2.9 z m 61.7,61 c 0,3 2.4,5.5 5.5,5.5 v 0 0 c 3,0 5.5,-2.5 5.5,-5.5 v 0 -125.4 c 0,-3 -2.4,-5.5 -5.5,-5.5 v 0 0 c -3,0 -5.5,2.4 -5.5,5.5 v 0 z m 101.8,16 V 224.3 C 200,212 190,202 177.7,202 H 22.3 C 10,202 0,212 0,224.3 V 379.7 C 0,392 10,402 22.3,402 H 177.7 C 190,402 200,392 200,379.7 Z M 177.7,207 c 9.5,0 17.3,7.8 17.3,17.3 v 155.4 c 0,9.5 -7.8,17.3 -17.3,17.3 H 22.3 C 12.8,397 5,389.2 5,379.7 V 224.3 C 5,214.8 12.8,207 22.3,207 Z M 145.2,53.5 c -6.3,0 -11.3,-5.1 -11.3,-11.3 0,-6.3 5.1,-11.3 11.3,-11.3 6.2,0 11.3,5.1 11.3,11.3 0,6.2 -5,11.3 -11.3,11.3 z m -26.7,16.9 v 34.8 c 0,6.8 9.1,6.8 9.1,0 l 0.8,-31.8 h 2.3 v 87.2 c 0,9 12.4,8.8 12.4,0 l 0.8,-50.6 h 2.5 l 0.8,50.6 c 0,8.8 12.4,9 12.4,0 V 73.4 h 2.4 l 0.8,31.8 c 0,6.8 9.1,6.8 9.1,0 V 70.4 c 0,-11.9 -3.6,-14.7 -14.5,-14.7 H 133 c -10.9,0 -14.5,2.8 -14.5,14.7 z m -48,-28.2 c 0,-6.3 -5,-11.4 -11.3,-11.4 -6.3,0 -11.4,5 -11.4,11.3 0,6.3 5,11.4 11.3,11.4 h 0.1 c 6.3,0 11.3,-5.1 11.3,-11.3 0.1,-0.1 0.1,-0.1 0,0 z m -34,58.5 10.3,-29.3 H 48 c 0,0 -13.5,52.4 -14.1,54.4 -0.3,1 0.1,1.7 1.2,1.7 H 46.8 V 162 c 0,7 10.5,7 10.5,0 v -34.7 h 4 V 162 c 0,7 10.5,7 10.5,0 v -34.5 h 11.7 c 1,0 1.4,-0.7 1.2,-1.7 -0.6,-2 -14.1,-54.4 -14.1,-54.4 h 1.2 l 10.3,29.3 c 2.1,6.4 10,4 8,-2.9 l -9.7,-32 C 78.5,60.1 72.9,55.7 64.6,55.7 H 54 c -8.2,0 -13.9,4.5 -15.8,10.1 l -9.7,32 c -2.1,6.9 5.9,9.4 8,2.9 z m 61.7,61 c 0,3 2.4,5.5 5.5,5.5 v 0 0 c 3,0 5.5,-2.5 5.5,-5.5 v 0 -125.4 c 0,-3 -2.4,-5.5 -5.5,-5.5 v 0 0 c -3,0 -5.5,2.4 -5.5,5.5 v 0 z m 101.8,16 V 22.3 C 200,10 190,0 177.7,0 H 22.3 C 10,0 0,10 0,22.3 V 177.7 C 0,190 10,200 22.3,200 H 177.7 C 190,200 200,190 200,177.7 Z M 177.7,5 c 9.5,0 17.3,7.8 17.3,17.3 v 155.4 c 0,9.5 -7.8,17.3 -17.3,17.3 H 22.3 C 12.8,195 5,187.2 5,177.7 V 22.3 C 5,12.8 12.8,5 22.3,5 Z"
	/>
</svg>