<svg viewBox="0 0 402 200" xmlns="http://www.w3.org/2000/svg"><path
		class="icon bulk"
		d="M 22.300781 0 C 10.000781 0 2.3684758e-15 10.000781 0 22.300781 L 0 177.69922 C 0 189.99922 10.000781 200 22.300781 200 L 177.69922 200 C 189.99922 200 200 189.99922 200 177.69922 L 200 22.300781 C 200 10.000781 189.99922 2.3684758e-15 177.69922 0 L 22.300781 0 z M 224.30078 0 C 212.00078 0 202 10.000781 202 22.300781 L 202 177.69922 C 202 189.99922 212.00078 200 224.30078 200 L 379.69922 200 C 391.99922 200 402 189.99922 402 177.69922 L 402 22.300781 C 402 10.000781 391.99922 2.3684758e-15 379.69922 0 L 224.30078 0 z M 22.300781 5 L 177.69922 5 C 187.19922 5 195 12.800781 195 22.300781 L 195 177.69922 C 195 187.19922 187.19922 195 177.69922 195 L 22.300781 195 C 12.800781 195 5 187.19922 5 177.69922 L 5 22.300781 C 5 12.800781 12.800781 5 22.300781 5 z M 224.30078 5 L 379.69922 5 C 389.19922 5 397 12.800781 397 22.300781 L 397 177.69922 C 397 187.19922 389.19922 195 379.69922 195 L 224.30078 195 C 214.80078 195 207 187.19922 207 177.69922 L 207 22.300781 C 207 12.800781 214.80078 5 224.30078 5 z M 362.40039 29.800781 C 354.10039 29.800781 349.39922 32.000781 343.19922 36.300781 C 337.49922 40.300781 229.00039 120.79922 224.40039 124.19922 C 222.40039 125.69922 222 128.59961 223.5 130.59961 C 225 132.59961 227.90039 133 229.90039 131.5 C 231.10039 130.7 342.9 47.700781 348.5 43.800781 C 353.8 40.100781 356.5 38.900391 362.5 38.900391 L 375.90039 38.900391 C 378.50039 38.900391 380.5 36.800781 380.5 34.300781 C 380.5 31.700781 378.40078 29.700781 375.80078 29.800781 L 362.40039 29.800781 z M 59.199219 30.800781 C 52.899219 30.800781 47.800781 35.799609 47.800781 42.099609 C 47.800781 48.399609 52.799609 53.5 59.099609 53.5 L 59.199219 53.5 C 65.499219 53.5 70.5 48.399219 70.5 42.199219 C 70.5 35.899219 65.499219 30.800781 59.199219 30.800781 z M 103.69922 30.800781 C 100.69922 30.800781 98.199219 33.200781 98.199219 36.300781 L 98.199219 161.69922 C 98.199219 164.69922 100.59922 167.19922 103.69922 167.19922 C 106.69922 167.19922 109.19922 164.69922 109.19922 161.69922 L 109.19922 36.300781 C 109.19922 33.300781 106.79922 30.800781 103.69922 30.800781 z M 145.19922 30.900391 C 138.99922 30.900391 133.90039 35.899219 133.90039 42.199219 C 133.90039 48.399219 138.89922 53.5 145.19922 53.5 C 151.49922 53.5 156.5 48.399219 156.5 42.199219 C 156.5 35.999219 151.39922 30.900391 145.19922 30.900391 z M 54 55.699219 C 45.8 55.699219 40.099219 60.200781 38.199219 65.800781 L 28.5 97.800781 C 26.4 104.70078 34.4 107.19922 36.5 100.69922 L 46.800781 71.400391 L 48 71.400391 C 48 71.400391 34.500391 123.80078 33.900391 125.80078 C 33.600391 126.80078 33.999609 127.5 35.099609 127.5 L 46.800781 127.5 L 46.800781 162 C 46.800781 169 57.300781 169 57.300781 162 L 57.300781 127.30078 L 61.300781 127.30078 L 61.300781 162 C 61.300781 169 71.800781 169 71.800781 162 L 71.800781 127.5 L 83.5 127.5 C 84.5 127.5 84.899219 126.80078 84.699219 125.80078 C 84.099219 123.80078 70.599609 71.400391 70.599609 71.400391 L 71.800781 71.400391 L 82.099609 100.69922 C 84.199609 107.09922 92.099609 104.70078 90.099609 97.800781 L 80.400391 65.800781 C 78.500391 60.100781 72.899609 55.699219 64.599609 55.699219 L 54 55.699219 z M 133 55.699219 C 122.1 55.699219 118.5 58.500391 118.5 70.400391 L 118.5 105.19922 C 118.5 111.99922 127.59961 111.99922 127.59961 105.19922 L 128.40039 73.400391 L 130.69922 73.400391 L 130.69922 160.59961 C 130.69922 169.59961 143.09961 169.39961 143.09961 160.59961 L 143.90039 110 L 146.40039 110 L 147.19922 160.59961 C 147.19922 169.39961 159.59961 169.59961 159.59961 160.59961 L 159.59961 73.400391 L 162 73.400391 L 162.80078 105.19922 C 162.80078 111.99922 171.90039 111.99922 171.90039 105.19922 L 171.90039 70.400391 C 171.90039 58.500391 168.30039 55.699219 157.40039 55.699219 L 133 55.699219 z M 347.30078 67.699219 L 347.30078 89.5 L 315.30078 89.5 L 315.30078 110.09961 L 285.59961 110.09961 L 285.59961 129.5 L 254.69922 129.5 L 254.69922 151.19922 L 223.80078 151.19922 L 223.80078 173 L 378.19922 173 L 378.19922 67.699219 L 347.30078 67.699219 z"
	/>
</svg>