<svg viewBox="0 0 200 402" xmlns="http://www.w3.org/2000/svg"><path
		class="icon bulk"
		d="M 22.300781 0 C 10.000781 0 2.3684758e-15 10.000781 0 22.300781 L 0 177.69922 C 0 189.99922 10.000781 200 22.300781 200 L 177.69922 200 C 189.99922 200 200 189.99922 200 177.69922 L 200 22.300781 C 200 10.000781 189.99922 2.3684758e-15 177.69922 0 L 22.300781 0 z M 22.300781 5 L 177.69922 5 C 187.19922 5 195 12.800781 195 22.300781 L 195 177.69922 C 195 187.19922 187.19922 195 177.69922 195 L 22.300781 195 C 12.800781 195 5 187.19922 5 177.69922 L 5 22.300781 C 5 12.800781 12.800781 5 22.300781 5 z M 160.40039 29.800781 C 152.10039 29.800781 147.39922 32.000781 141.19922 36.300781 C 135.49922 40.300781 27.000391 120.79922 22.400391 124.19922 C 20.400391 125.69922 20 128.59961 21.5 130.59961 C 23 132.59961 25.900391 133 27.900391 131.5 C 29.100391 130.7 140.9 47.700781 146.5 43.800781 C 151.8 40.100781 154.5 38.900391 160.5 38.900391 L 173.90039 38.900391 C 176.50039 38.900391 178.5 36.800781 178.5 34.300781 C 178.5 31.700781 176.40078 29.700781 173.80078 29.800781 L 160.40039 29.800781 z M 145.30078 67.699219 L 145.30078 89.5 L 113.30078 89.5 L 113.30078 110.09961 L 83.599609 110.09961 L 83.599609 129.5 L 52.699219 129.5 L 52.699219 151.19922 L 21.800781 151.19922 L 21.800781 173 L 176.19922 173 L 176.19922 67.699219 L 145.30078 67.699219 z M 22.300781 202 C 10.000781 202 0 212.00078 0 224.30078 L 0 379.69922 C 2.3684758e-15 391.99922 10.000781 402 22.300781 402 L 177.69922 402 C 189.99922 402 200 391.99922 200 379.69922 L 200 224.30078 C 200 212.00078 189.99922 202 177.69922 202 L 22.300781 202 z M 22.300781 207 L 177.69922 207 C 187.19922 207 195 214.80078 195 224.30078 L 195 379.69922 C 195 389.19922 187.19922 397 177.69922 397 L 22.300781 397 C 12.800781 397 5 389.19922 5 379.69922 L 5 224.30078 C 5 214.80078 12.800781 207 22.300781 207 z M 122.87305 236.80859 C 95.206616 236.86611 70.903516 248.13984 63.900391 259.69922 L 48.800781 259.69922 C 48.800781 255.39922 45.7 252 42 252 C 38.3 252 35.199219 255.39922 35.199219 259.69922 C 35.099219 262.59922 36.699219 265.29922 39.199219 266.69922 C 36.699219 267.89922 35.199219 270.50078 35.199219 273.30078 C 34.999219 277.10078 37.899219 280.3 41.699219 280.5 C 45.499219 280.7 48.700391 277.8 48.900391 274 L 48.900391 273.30078 L 63.900391 273.30078 C 71.000391 286.60078 97.499609 298.70039 138.59961 294.40039 C 145.29961 293.70039 150.80078 281.79922 150.80078 266.19922 C 150.80078 250.59922 145.2 239 138.5 238 C 133.23438 237.17188 127.99646 236.79794 122.87305 236.80859 z M 138.5 242.19922 C 144.2 242.19922 148.80078 252.89922 148.80078 266.19922 C 148.80078 279.49922 144.2 290.09922 138.5 290.19922 C 132.8 290.19922 128.19922 279.49922 128.19922 266.19922 C 128.19922 252.89922 132.8 242.19922 138.5 242.19922 z M 138.5 257.59961 C 136.5 257.59961 134.80078 261.49922 134.80078 266.19922 C 134.80078 270.89922 136.5 274.80078 138.5 274.80078 C 140.5 274.80078 142.19922 270.99922 142.19922 266.19922 C 142.19922 261.39922 140.5 257.59961 138.5 257.59961 z M 74.199219 311.5 C 48.199219 311.8 33.699219 338.30078 33.699219 338.30078 C 33.699219 338.30078 48.799609 366.90039 73.599609 366.90039 C 100.19961 366.90039 123.09961 350.19922 133.09961 341.69922 L 155.59961 361.69922 C 155.59961 361.69922 156.90039 350.8 151.90039 346 C 149.50039 343.6 147.00078 341.39922 144.30078 339.19922 C 146.90078 337.09922 149.50039 334.80039 151.90039 332.40039 C 156.90039 327.60039 155.59961 316.80078 155.59961 316.80078 L 135.40039 334.69922 C 125.80039 328.79922 95.799219 311.3 74.199219 311.5 z M 66.599609 320 C 66.599609 320 78.000391 319.9 78.400391 338 C 78.800391 356.2 66.599609 358.09961 66.599609 358.09961 C 70.799609 352.19961 73.200391 345.10078 73.400391 337.80078 C 73.700391 325.70078 66.599609 320 66.599609 320 z M 55.599609 328.90039 C 57.799609 328.90039 59.5 331.10039 59.5 333.90039 C 59.5 336.70039 57.799609 338.90039 55.599609 338.90039 C 53.399609 338.90039 51.699219 336.70039 51.699219 333.90039 C 51.699219 331.10039 53.499609 328.90039 55.599609 328.90039 z"
	/>
</svg>