<svg viewBox="0 0 200 604" xmlns="http://www.w3.org/2000/svg"><path
		class="icon bulk"
		d="M 22.300781 0 C 10.000781 0 2.3684758e-15 10.000781 0 22.300781 L 0 177.69922 C 0 189.99922 10.000781 200 22.300781 200 L 177.69922 200 C 189.99922 200 200 189.99922 200 177.69922 L 200 22.300781 C 200 10.000781 189.99922 2.3684758e-15 177.69922 0 L 22.300781 0 z M 22.300781 5 L 177.69922 5 C 187.19922 5 195 12.800781 195 22.300781 L 195 177.69922 C 195 187.19922 187.19922 195 177.69922 195 L 22.300781 195 C 12.800781 195 5 187.19922 5 177.69922 L 5 22.300781 C 5 12.800781 12.800781 5 22.300781 5 z M 160.40039 29.800781 C 152.10039 29.800781 147.39922 32.000781 141.19922 36.300781 C 135.49922 40.300781 27.000391 120.79922 22.400391 124.19922 C 20.400391 125.69922 20 128.59961 21.5 130.59961 C 23 132.59961 25.900391 133 27.900391 131.5 C 29.100391 130.7 140.9 47.700781 146.5 43.800781 C 151.8 40.100781 154.5 38.900391 160.5 38.900391 L 173.90039 38.900391 C 176.50039 38.900391 178.5 36.800781 178.5 34.300781 C 178.5 31.700781 176.40078 29.700781 173.80078 29.800781 L 160.40039 29.800781 z M 145.30078 67.699219 L 145.30078 89.5 L 113.30078 89.5 L 113.30078 110.09961 L 83.599609 110.09961 L 83.599609 129.5 L 52.699219 129.5 L 52.699219 151.19922 L 21.800781 151.19922 L 21.800781 173 L 176.19922 173 L 176.19922 67.699219 L 145.30078 67.699219 z M 22.300781 202 C 10.000781 202 2.3684758e-15 212.00078 0 224.30078 L 0 379.69922 C 0 391.99922 10.000781 402 22.300781 402 L 177.69922 402 C 189.99922 402 200 391.99922 200 379.69922 L 200 224.30078 C 200 212.00078 189.99922 202 177.69922 202 L 22.300781 202 z M 22.300781 207 L 177.69922 207 C 187.19922 207 195 214.80078 195 224.30078 L 195 379.69922 C 195 389.19922 187.19922 397 177.69922 397 L 22.300781 397 C 12.800781 397 5 389.19922 5 379.69922 L 5 224.30078 C 5 214.80078 12.800781 207 22.300781 207 z M 59.199219 232.80078 C 52.899219 232.80078 47.800781 237.79961 47.800781 244.09961 C 47.800781 250.39961 52.799609 255.5 59.099609 255.5 L 59.199219 255.5 C 65.499219 255.5 70.5 250.39922 70.5 244.19922 C 70.5 237.89922 65.499219 232.80078 59.199219 232.80078 z M 103.69922 232.80078 C 100.69922 232.80078 98.199219 235.20078 98.199219 238.30078 L 98.199219 363.69922 C 98.199219 366.69922 100.59922 369.19922 103.69922 369.19922 C 106.69922 369.19922 109.19922 366.69922 109.19922 363.69922 L 109.19922 238.30078 C 109.19922 235.30078 106.79922 232.80078 103.69922 232.80078 z M 145.19922 232.80078 C 138.99922 232.80078 133.90039 237.79961 133.90039 244.09961 C 133.90039 250.29961 138.89922 255.40039 145.19922 255.40039 C 151.39922 255.50039 156.5 250.39961 156.5 244.09961 C 156.5 237.89961 151.39922 232.80078 145.19922 232.80078 z M 54 257.69922 C 45.8 257.69922 40.099219 262.20078 38.199219 267.80078 L 28.5 299.80078 C 26.4 306.70078 34.4 309.19922 36.5 302.69922 L 46.800781 273.40039 L 48 273.40039 C 48 273.40039 34.500391 325.80078 33.900391 327.80078 C 33.600391 328.80078 33.999609 329.5 35.099609 329.5 L 46.800781 329.5 L 46.800781 364 C 46.800781 371 57.300781 371 57.300781 364 L 57.300781 329.30078 L 61.300781 329.30078 L 61.300781 364 C 61.300781 371 71.800781 371 71.800781 364 L 71.800781 329.5 L 83.5 329.5 C 84.5 329.5 84.899219 328.80078 84.699219 327.80078 C 84.099219 325.80078 70.599609 273.40039 70.599609 273.40039 L 71.800781 273.40039 L 82.099609 302.69922 C 84.199609 309.09922 92.099609 306.70078 90.099609 299.80078 L 80.400391 267.80078 C 78.500391 262.20078 72.899609 257.69922 64.599609 257.69922 L 54 257.69922 z M 133 257.80078 C 122.1 257.70078 118.5 260.5 118.5 272.5 L 118.5 307.30078 C 118.5 314.10078 127.59961 314.10078 127.59961 307.30078 L 128.40039 275.5 L 130.69922 275.5 L 130.69922 362.69922 C 130.69922 371.69922 143.09961 371.49922 143.09961 362.69922 L 143.90039 312.09961 L 146.40039 312.09961 L 147.19922 362.69922 C 147.19922 371.49922 159.59961 371.69922 159.59961 362.69922 L 159.59961 275.5 L 162 275.5 L 162.80078 307.30078 C 162.80078 314.10078 171.90039 314.10078 171.90039 307.30078 L 171.90039 272.5 C 171.90039 260.6 168.30039 257.80078 157.40039 257.80078 L 133 257.80078 z M 22.300781 404 C 10.000781 404 0 414.00078 0 426.30078 L 0 581.69922 C 2.3684758e-15 593.99922 10.000781 604 22.300781 604 L 177.69922 604 C 189.99922 604 200 593.99922 200 581.69922 L 200 426.30078 C 200 414.00078 189.99922 404 177.69922 404 L 22.300781 404 z M 22.300781 409 L 177.69922 409 C 187.19922 409 195 416.80078 195 426.30078 L 195 581.69922 C 195 591.19922 187.19922 599 177.69922 599 L 22.300781 599 C 12.800781 599 5 591.19922 5 581.69922 L 5 426.30078 C 5 416.80078 12.800781 409 22.300781 409 z M 122.87305 438.80859 C 95.206616 438.86611 70.903516 450.13984 63.900391 461.69922 L 48.800781 461.69922 C 48.800781 457.39922 45.7 454 42 454 C 38.3 454 35.199219 457.39922 35.199219 461.69922 C 35.099219 464.59922 36.699219 467.29922 39.199219 468.69922 C 36.699219 469.89922 35.199219 472.50078 35.199219 475.30078 C 34.999219 479.10078 37.899219 482.3 41.699219 482.5 C 45.499219 482.7 48.700391 479.8 48.900391 476 L 48.900391 475.30078 L 63.900391 475.30078 C 71.000391 488.60078 97.499609 500.70039 138.59961 496.40039 C 145.29961 495.70039 150.80078 483.79922 150.80078 468.19922 C 150.70078 452.59922 145.2 441 138.5 440 C 133.23438 439.17188 127.99646 438.79794 122.87305 438.80859 z M 138.5 444.19922 C 144.2 444.19922 148.80078 454.89922 148.80078 468.19922 C 148.80078 481.49922 144.2 492.09922 138.5 492.19922 C 132.8 492.19922 128.19922 481.49922 128.19922 468.19922 C 128.19922 454.89922 132.8 444.19922 138.5 444.19922 z M 138.5 459.59961 C 136.5 459.59961 134.80078 463.39922 134.80078 468.19922 C 134.80078 472.89922 136.5 476.80078 138.5 476.80078 C 140.5 476.80078 142.19922 472.99922 142.19922 468.19922 C 142.19922 463.39922 140.5 459.59961 138.5 459.59961 z M 74.199219 513.5 C 48.199219 513.8 33.699219 540.30078 33.699219 540.30078 C 33.699219 540.30078 48.799609 568.90039 73.599609 568.90039 C 100.19961 568.90039 123.09961 552.19922 133.09961 543.69922 L 155.59961 563.69922 C 155.59961 563.69922 156.90039 552.8 151.90039 548 C 149.50039 545.6 147.00078 543.39922 144.30078 541.19922 C 146.90078 539.09922 149.50039 536.80039 151.90039 534.40039 C 156.90039 529.60039 155.59961 518.80078 155.59961 518.80078 L 135.40039 536.69922 C 125.80039 530.79922 95.799219 513.3 74.199219 513.5 z M 66.599609 521.90039 C 66.599609 521.90039 78.000391 521.80039 78.400391 539.90039 C 78.800391 558.00039 66.599609 560.1 66.599609 560 C 70.799609 554.1 73.200391 546.99922 73.400391 539.69922 C 73.700391 527.59922 66.599609 521.90039 66.599609 521.90039 z M 55.699219 530.80078 C 57.799219 530.80078 59.599609 533.00078 59.599609 535.80078 C 59.599609 538.60078 57.799219 540.90078 55.699219 540.80078 C 53.499219 540.80078 51.800781 538.60078 51.800781 535.80078 C 51.800781 533.00078 53.599219 530.80078 55.699219 530.80078 z"
	/>
</symbol>
</svg>