<svg viewBox="0 0 200 200" xmlns="http://www.w3.org/2000/svg"><path
		class="icon bulk"
		d="M177.7,0H22.3C10,0,0,10,0,22.3v155.4C0,190,10,200,22.3,200h155.4c12.3,0,22.3-10,22.3-22.3V22.3C200,10,190,0,177.7,0z M195,177.7c0,9.5-7.8,17.3-17.3,17.3H22.3C12.8,195,5,187.2,5,177.7V22.3C5,12.8,12.8,5,22.3,5h155.4c9.5,0,17.3,7.8,17.3,17.3 V177.7z M145.3,67.7h30.9V173H21.8v-21.8h30.9v-21.7h30.9v-19.4h29.7V89.5h32L145.3,67.7z M178.5,34.3c0,2.5-2,4.6-4.6,4.6 c0,0,0,0,0,0h-13.4c-6,0-8.7,1.2-14,4.9c-5.6,3.9-117.4,86.9-118.6,87.7c-2,1.5-4.9,1.1-6.4-0.9s-1.1-4.9,0.9-6.4 c4.6-3.4,113.1-83.9,118.8-87.9c6.2-4.3,10.9-6.5,19.2-6.5h13.4C176.4,29.7,178.5,31.7,178.5,34.3C178.5,34.2,178.5,34.3,178.5,34.3z"
	/>
</svg>