<svg viewBox="0 0 402 200" xmlns="http://www.w3.org/2000/svg"><path
		class="icon bulk"
		d="M 22.300781 0 C 10.000781 0 2.3684758e-15 10.000781 0 22.300781 L 0 177.69922 C 0 189.99922 10.000781 200 22.300781 200 L 177.69922 200 C 189.99922 200 200 189.99922 200 177.69922 L 200 22.300781 C 200 10.000781 189.99922 2.3684758e-15 177.69922 0 L 22.300781 0 z M 223.30078 0 C 211.00078 2.3684758e-15 201 10.000781 201 22.300781 L 201 177.69922 C 201 189.99922 211.00078 200 223.30078 200 L 378.69922 200 C 390.99922 200 401 189.99922 401 177.69922 L 401 22.300781 C 401 10.000781 390.99922 0 378.69922 0 L 223.30078 0 z M 22.300781 5 L 177.69922 5 C 187.19922 5 195 12.800781 195 22.300781 L 195 177.69922 C 195 187.19922 187.19922 195 177.69922 195 L 22.300781 195 C 12.800781 195 5 187.19922 5 177.69922 L 5 22.300781 C 5 12.800781 12.800781 5 22.300781 5 z M 223.30078 5 L 378.69922 5 C 388.19922 5 396 12.800781 396 22.300781 L 396 177.69922 C 396 187.19922 388.19922 195 378.69922 195 L 223.30078 195 C 213.80078 195 206 187.19922 206 177.69922 L 206 22.300781 C 206 12.800781 213.80078 5 223.30078 5 z M 160.40039 29.800781 C 152.10039 29.800781 147.39922 32.000781 141.19922 36.300781 C 135.49922 40.300781 27.000391 120.79922 22.400391 124.19922 C 20.400391 125.69922 20 128.59961 21.5 130.59961 C 23 132.59961 25.900391 133 27.900391 131.5 C 29.100391 130.7 140.9 47.700781 146.5 43.800781 C 151.8 40.100781 154.5 38.900391 160.5 38.900391 L 173.90039 38.900391 C 176.50039 38.900391 178.5 36.800781 178.5 34.300781 C 178.5 31.700781 176.40078 29.700781 173.80078 29.800781 L 160.40039 29.800781 z M 323.87305 34.808594 C 296.20662 34.866107 271.90352 46.139844 264.90039 57.699219 L 249.80078 57.699219 C 249.80078 53.399219 246.7 50 243 50 C 239.3 50 236.19922 53.399219 236.19922 57.699219 C 236.09922 60.599219 237.69922 63.299219 240.19922 64.699219 C 237.69922 65.899219 236.19922 68.500781 236.19922 71.300781 C 235.99922 75.100781 238.89922 78.3 242.69922 78.5 C 246.49922 78.7 249.70039 75.8 249.90039 72 L 249.90039 71.300781 L 264.90039 71.300781 C 272.00039 84.600781 298.49961 96.700391 339.59961 92.400391 C 346.29961 91.700391 351.80078 79.799219 351.80078 64.199219 C 351.80078 48.599219 346.2 37 339.5 36 C 334.23438 35.171875 328.99646 34.797943 323.87305 34.808594 z M 339.5 40.199219 C 345.2 40.199219 349.80078 50.899219 349.80078 64.199219 C 349.80078 77.499219 345.2 88.099219 339.5 88.199219 C 333.8 88.199219 329.19922 77.499219 329.19922 64.199219 C 329.19922 50.899219 333.8 40.199219 339.5 40.199219 z M 339.5 55.599609 C 337.5 55.599609 335.80078 59.499219 335.80078 64.199219 C 335.80078 68.899219 337.5 72.800781 339.5 72.800781 C 341.5 72.800781 343.19922 68.999219 343.19922 64.199219 C 343.19922 59.399219 341.5 55.599609 339.5 55.599609 z M 145.30078 67.699219 L 145.30078 89.5 L 113.30078 89.5 L 113.30078 110.09961 L 83.599609 110.09961 L 83.599609 129.5 L 52.699219 129.5 L 52.699219 151.19922 L 21.800781 151.19922 L 21.800781 173 L 176.19922 173 L 176.19922 67.699219 L 145.30078 67.699219 z M 275.19922 109.5 C 249.19922 109.8 234.69922 136.30078 234.69922 136.30078 C 234.69922 136.30078 249.79961 164.90039 274.59961 164.90039 C 301.19961 164.90039 324.09961 148.19922 334.09961 139.69922 L 356.59961 159.69922 C 356.59961 159.69922 357.90039 148.8 352.90039 144 C 350.50039 141.6 348.00078 139.39922 345.30078 137.19922 C 347.90078 135.09922 350.50039 132.80039 352.90039 130.40039 C 357.90039 125.60039 356.59961 114.80078 356.59961 114.80078 L 336.40039 132.69922 C 326.80039 126.79922 296.79922 109.3 275.19922 109.5 z M 267.59961 118 C 267.59961 118 279.00039 117.9 279.40039 136 C 279.80039 154.2 267.59961 156.09961 267.59961 156.09961 C 271.79961 150.19961 274.20039 143.10078 274.40039 135.80078 C 274.70039 123.70078 267.59961 118 267.59961 118 z M 256.59961 126.90039 C 258.79961 126.90039 260.5 129.10039 260.5 131.90039 C 260.5 134.70039 258.79961 136.90039 256.59961 136.90039 C 254.39961 136.90039 252.69922 134.70039 252.69922 131.90039 C 252.69922 129.10039 254.49961 126.90039 256.59961 126.90039 z"
	/>
</svg>