<svg viewBox="0 0 402 200" xmlns="http://www.w3.org/2000/svg"><path
		class="icon bulk"
		d="M 22.300781 0 C 10.000781 0 2.3684758e-15 10.000781 0 22.300781 L 0 177.69922 C 0 189.99922 10.000781 200 22.300781 200 L 177.69922 200 C 189.99922 200 200 189.99922 200 177.69922 L 200 22.300781 C 200 10.000781 189.99922 2.3684758e-15 177.69922 0 L 22.300781 0 z M 223.30078 0 C 211.00078 0 201 10.000781 201 22.300781 L 201 177.69922 C 201 189.99922 211.00078 200 223.30078 200 L 378.69922 200 C 390.99922 200 401 189.99922 401 177.69922 L 401 22.300781 C 401 10.000781 390.99922 2.3684758e-15 378.69922 0 L 223.30078 0 z M 22.300781 5 L 177.69922 5 C 187.19922 5 195 12.800781 195 22.300781 L 195 177.69922 C 195 187.19922 187.19922 195 177.69922 195 L 22.300781 195 C 12.800781 195 5 187.19922 5 177.69922 L 5 22.300781 C 5 12.800781 12.800781 5 22.300781 5 z M 223.30078 5 L 378.69922 5 C 388.19922 5 396 12.800781 396 22.300781 L 396 177.69922 C 396 187.19922 388.19922 195 378.69922 195 L 223.30078 195 C 213.80078 195 206 187.19922 206 177.69922 L 206 22.300781 C 206 12.800781 213.80078 5 223.30078 5 z M 160.40039 29.800781 C 152.10039 29.800781 147.39922 32.000781 141.19922 36.300781 C 135.49922 40.300781 27.000391 120.79922 22.400391 124.19922 C 20.400391 125.69922 20 128.59961 21.5 130.59961 C 23 132.59961 25.900391 133 27.900391 131.5 C 29.100391 130.7 140.9 47.700781 146.5 43.800781 C 151.8 40.100781 154.5 38.900391 160.5 38.900391 L 173.90039 38.900391 C 176.50039 38.900391 178.5 36.800781 178.5 34.300781 C 178.5 31.700781 176.40078 29.700781 173.80078 29.800781 L 160.40039 29.800781 z M 260.19922 30.800781 C 253.89922 30.800781 248.80078 35.799609 248.80078 42.099609 C 248.80078 48.399609 253.79961 53.5 260.09961 53.5 L 260.19922 53.5 C 266.49922 53.5 271.5 48.399219 271.5 42.199219 C 271.5 35.899219 266.49922 30.800781 260.19922 30.800781 z M 304.69922 30.800781 C 301.69922 30.800781 299.19922 33.200781 299.19922 36.300781 L 299.19922 161.69922 C 299.19922 164.69922 301.59922 167.19922 304.69922 167.19922 C 307.69922 167.19922 310.19922 164.69922 310.19922 161.69922 L 310.19922 36.300781 C 310.19922 33.300781 307.79922 30.800781 304.69922 30.800781 z M 346.30078 30.900391 C 340.00078 30.900391 334.90039 35.899219 334.90039 42.199219 C 334.90039 48.399219 339.89922 53.5 346.19922 53.5 C 352.49922 53.5 357.49961 48.399219 357.59961 42.199219 C 357.59961 35.999219 352.50078 30.900391 346.30078 30.900391 z M 255 55.699219 C 246.8 55.699219 241.09922 60.200781 239.19922 65.800781 L 229.5 97.800781 C 227.4 104.70078 235.4 107.19922 237.5 100.69922 L 247.80078 71.400391 L 249 71.400391 C 249 71.400391 235.50039 123.80078 234.90039 125.80078 C 234.60039 126.80078 234.99961 127.5 236.09961 127.5 L 247.80078 127.5 L 247.80078 162 C 247.80078 169 258.30078 169 258.30078 162 L 258.30078 127.30078 L 262.30078 127.30078 L 262.30078 162 C 262.30078 169 272.80078 169 272.80078 162 L 272.80078 127.5 L 284.5 127.5 C 285.5 127.5 285.89922 126.80078 285.69922 125.80078 C 285.09922 123.80078 271.59961 71.400391 271.59961 71.400391 L 272.80078 71.400391 L 283.09961 100.69922 C 285.19961 107.09922 293.09961 104.70078 291.09961 97.800781 L 281.40039 65.800781 C 279.50039 60.100781 273.89961 55.699219 265.59961 55.699219 L 255 55.699219 z M 334 55.699219 C 323.1 55.699219 319.5 58.500391 319.5 70.400391 L 319.5 105.19922 C 319.5 111.99922 328.59961 111.99922 328.59961 105.19922 L 329.40039 73.400391 L 331.69922 73.400391 L 331.69922 160.59961 C 331.69922 169.59961 344.09961 169.39961 344.09961 160.59961 L 345 110 L 347.5 110 L 348.30078 160.59961 C 348.30078 169.39961 360.69922 169.59961 360.69922 160.59961 L 360.69922 73.400391 L 363.09961 73.400391 L 363.90039 105.19922 C 363.90039 111.99922 373 111.99922 373 105.19922 L 373 70.400391 C 373 58.500391 369.4 55.699219 358.5 55.699219 L 334 55.699219 z M 145.30078 67.699219 L 145.30078 89.5 L 113.30078 89.5 L 113.30078 110.09961 L 83.599609 110.09961 L 83.599609 129.5 L 52.699219 129.5 L 52.699219 151.19922 L 21.800781 151.19922 L 21.800781 173 L 176.19922 173 L 176.19922 67.699219 L 145.30078 67.699219 z"
	/>
</svg>