<?xml version="1.0" encoding="utf-8"?>
<!-- Generator: Adobe Illustrator 27.5.0, SVG Export Plug-In . SVG Version: 6.00 Build 0)  -->
<svg
  version="1.1"
  xmlns="http://www.w3.org/2000/svg"
  xmlns:xlink="http://www.w3.org/1999/xlink"
  x="0px"
  y="0px"
  viewBox="0 0 200 340"
  style="enable-background: new 0 0 200 340"
  xml:space="preserve"
>
  <style type="text/css">
    .filling-straight {
      fill: none;
      stroke: #ffffff;
      stroke-width: 3;
      stroke-miterlimit: 10;
    }
    .filling {
      fill: #e5eaee;
    }
    .outline {
      fill: none;
      stroke: #ffffff;
      stroke-width: 3;
      stroke-miterlimit: 10;
    }
    .dotted-line {
      fill: none;
      stroke: #ffffff;
      stroke-width: 2;
      stroke-linecap: round;
      stroke-linejoin: round;
      stroke-dasharray: 0.9808, 5.8847;
    }
  </style>
  <path
    class="filling-straight"
    d="M1.5,0v17c0,0,13.1,132.9,33.1,193.1c5.5,16.5,37.5,128.3,65.1,128.3s59.6-111.9,65.1-128.3
	C184.6,149.9,198.5,17,198.5,17V0"
  />
  <path class="filling" d="M128.8,304.5l69.7,5V158.7c0,0-14.3,2.5-17-22.3" />
  <path class="filling" d="M71.2,304.5l-69.7,5V158.7c0,0,13.8,2.4,16.5-22.4" />
  <path
    class="filling"
    d="M197.1,10.9c0,0-34.7-9.2-46.9-9.3c-12.9-0.1-37.7,9.9-50.5,9.9c-13.3,0-38.8-10.2-52.1-10.1
	C35.8,1.6,3.1,10.9,3.1,10.9L1.5,11v6c0,0,13.1,132.9,33.1,193.1c5.5,16.5,37.5,128.3,65.1,128.3s59.6-111.9,65.1-128.3
	C184.6,149.9,198.5,17,198.5,17"
  />
  <path class="outline" d="M71.2,304.5l-69.7,5V158.7c0,0,13.8,2.4,16.5-22.4" />
  <path class="outline" d="M128.8,304.5l69.7,5V158.7c0,0-14.3,2.5-17-22.3" />
  <path
    class="outline"
    d="M1.5,10.9V17c0,0,13.1,132.9,33.1,193.1c5.5,16.5,37.5,128.3,65.1,128.3s59.6-111.9,65.1-128.3
	C184.6,149.9,198.5,17,198.5,17v-6.1"
  />
  <path class="dotted-line" d="M5.9,10.1C6,10.1,6.2,10,6.3,10" />
  <path
    class="dotted-line"
    d="M12,8.4c11-2.9,28.2-7,36.3-7c13.5,0,37.7,10.1,51.2,10.1c13.1,0,36.7-10.2,51.4-9.8c8.8,0.1,29.5,5,39.9,7.6"
  />
  <path class="dotted-line" d="M193.6,10c0.2,0,0.3,0.1,0.5,0.1" />
</svg>
