<svg
	id="bulk-19"
	version="1.1"
	viewBox="0 0 268 172"
	xmlns="http://www.w3.org/2000/svg"
>
<path
	class="bulk-cut"
	d="M21,23.6C13.9,33.5,4.6,60.1,0,96.1c0,0,242.7,71.6,252.7,74.9c10,3.3,15.3-2,15.3-8.6V54
	C268,54,54.7,5.7,45.7,6C35.1,6.3,25.7,17.8,21,23.6z"
/>
<path
	class="bulk-base"
	d="M258.1,45.3c-7.3-2-139-33.6-184.7-44.3C60.5-1.8,38.6-0.1,21,23.6c2-2.5,10.4-11.6,21.1-9
	c12.3,3,190.6,49.1,190.6,49.1C240,66,259.1,71,265.4,61c1.8-2.8,2.5-5.1,2.6-7C268.1,49.1,263.4,46.7,258.1,45.3z"
/>
</svg>
