<svg version="1.1" id="bulk-23" xmlns="http://www.w3.org/2000/svg" xmlns:xlink="http://www.w3.org/1999/xlink" x="0px" y="0px"
	 viewBox="0 0 287 357" style="enable-background:new 0 0 287 357;" xml:space="preserve">

<path class="bulk-base" d="M0,200l0.1,157H271c10,0,16-5.7,16-14V200H0z"/>
<path class="bulk-cut" d="M270,0C260.4,0,94.6,7.6,62,16C17.4,27.5,0,47.1,0,118v239c0,0,9.9-74.3,66-79s199-15,199-15
	c10.3,0,22-3.7,22-16V19C287,7.6,279.6,0,270,0z"/>
<rect x="36" y="48" transform="matrix(0.9989 -4.616482e-02 4.616482e-02 0.9989 -6.312 7.1897)" class="st1" width="233" height="184.5" fill-opacity="0" />
</svg>
